# Blender 3.5.1
# www.blender.org
o Object_2
v -0.017554 0.060376 -0.109504
v 0.073987 0.094407 0.045353
v 0.084104 0.196141 0.043402
v 0.376921 0.014175 0.193740
v 0.394847 0.043361 0.242755
v 0.377845 0.049410 0.294450
v 0.339421 0.053163 0.348196
v -0.026130 0.070488 -0.189995
v 0.000465 0.155191 -0.217765
v 0.003313 0.060145 -0.234312
v -0.017854 0.068199 -0.158789
v -0.028217 0.006359 -0.172847
v 0.156518 0.018368 0.280785
v 0.279693 0.046711 0.369432
v 0.210846 0.041633 0.346692
v 0.108298 0.223253 -0.091913
v 0.072073 0.344801 -0.000725
v 0.081940 0.386097 -0.003892
v 0.038274 0.345985 -0.010491
v 0.072073 0.344801 -0.000725
v 0.108298 0.223253 -0.091913
v 0.153356 0.360524 -0.066314
v 0.168670 0.372691 -0.084163
v -0.291039 0.142050 0.234977
v -0.261827 0.153813 0.191918
v -0.261552 0.135712 0.191902
v 0.254680 0.068847 -0.048385
v 0.186013 0.077688 -0.221083
v 0.206860 0.188838 -0.042882
v 0.135928 0.073768 -0.292741
v 0.161374 0.081218 -0.265938
v 0.148589 0.007131 -0.270240
v 0.140050 0.304585 -0.146282
v 0.168670 0.372691 -0.084163
v 0.160528 0.286524 -0.049821
v 0.097022 0.157217 -0.290853
v 0.103045 0.062697 -0.296409
v 0.128164 0.365276 -0.179565
v 0.105776 0.375417 -0.175470
v 0.074748 0.393103 -0.158194
v 0.037760 0.379428 -0.129558
v 0.011182 0.350471 -0.101876
v 0.153967 0.349206 -0.146073
v 0.144606 0.350917 -0.168227
v 0.007741 0.339106 -0.056195
v 0.018080 0.356082 -0.042379
v 0.165155 0.383718 -0.124997
v 0.003200 0.343974 -0.077727
v 0.038274 0.345985 -0.010491
v 0.018080 0.356082 -0.042379
v -0.430533 0.010031 0.178963
v -0.440819 0.049410 0.289167
v -0.458077 0.043361 0.238274
v -0.400096 0.053163 0.340465
v -0.030512 0.068082 -0.164800
v -0.032859 0.006373 -0.183872
v -0.021960 0.070216 -0.196184
v -0.165137 0.306216 -0.146142
v -0.194760 0.280035 -0.065586
v -0.207143 0.372382 -0.087840
v -0.031457 0.060382 -0.115309
v -0.130545 0.203516 0.045950
v -0.130049 0.092261 0.042049
v -0.312535 0.071872 -0.049077
v -0.241669 0.197799 -0.036977
v -0.187046 0.065835 -0.233283
v -0.211931 0.018368 0.272097
v -0.267404 0.041633 0.337145
v -0.337893 0.046711 0.359960
v 0.311026 0.142561 0.196684
v 0.279084 0.151136 0.148462
v 0.279623 0.134581 0.148354
v -0.081403 0.343521 -0.009771
v -0.064719 0.358167 -0.053921
v -0.140065 0.063268 -0.304456
v -0.153491 0.004142 -0.297971
v -0.160587 0.069090 -0.278302
v -0.126406 0.146941 -0.302994
v -0.115933 0.054888 -0.306811
v -0.047275 0.059152 -0.241190
v -0.044520 0.150784 -0.229822
v -0.148990 0.388008 -0.203023
v -0.154190 0.205473 -0.104566
v -0.126175 0.402623 -0.191344
v -0.098217 0.404241 -0.180440
v -0.078437 0.386862 -0.153861
v -0.058049 0.361684 -0.126315
v -0.166396 0.362156 -0.160513
v -0.154190 0.205473 -0.104566
v -0.150932 0.368982 -0.183065
v -0.148990 0.388008 -0.203023
v -0.081403 0.343521 -0.009771
v -0.097869 0.334747 0.007762
v -0.180547 0.353060 -0.067684
v -0.154190 0.205473 -0.104566
v -0.207143 0.372382 -0.087840
v -0.062972 0.346598 -0.086160
v -0.064719 0.358167 -0.053921
v -0.207143 0.372382 -0.087840
v -0.191294 0.385847 -0.132847
v -0.058197 0.355951 -0.106673
v -0.340766 0.160643 0.142621
v -0.373807 0.144938 0.189832
v -0.341417 0.142765 0.142622
v -0.111202 0.375645 0.000918
v -0.154190 0.205473 -0.104566
v -0.156635 0.393313 -0.024590
v -0.187894 0.389841 -0.061976
v 0.118910 0.393314 -0.028062
v 0.154015 0.394673 -0.063012
v -0.154190 0.205473 -0.104566
v -0.180547 0.353060 -0.067684
v -0.187894 0.389841 -0.061976
v 0.202030 0.144913 0.194556
v 0.232826 0.140826 0.243412
v 0.202345 0.128349 0.195153
v 0.153356 0.360524 -0.066314
v 0.108298 0.223253 -0.091913
v 0.154015 0.394673 -0.063012
v -0.097869 0.334747 0.007762
v 0.165155 0.383718 -0.124997
v 0.153967 0.349206 -0.146073
v -0.191294 0.385847 -0.132847
v -0.166396 0.362156 -0.160513
v 0.342079 0.292709 -0.067966
v 0.348239 0.312391 -0.069957
v 0.312608 0.297144 -0.056775
v 0.262931 0.426745 -0.065464
v 0.314135 0.384616 -0.076139
v 0.323913 0.433043 -0.081815
v 0.362301 0.481506 -0.087812
v 0.364111 0.505074 -0.089641
v 0.337657 0.505802 -0.081104
v -0.267934 0.526125 0.021625
v -0.284505 0.484623 0.046866
v -0.250570 0.484038 0.036809
v -0.263596 0.431878 0.013094
v 0.250097 0.382227 -0.075192
v 0.308249 0.287326 -0.064975
v 0.334779 0.519665 -0.090325
v 0.178559 0.484134 -0.079223
v 0.264763 0.466032 -0.084927
v 0.181950 0.494819 -0.088362
v 0.120134 0.531386 -0.092313
v 0.151710 0.399644 -0.078388
v 0.109326 0.367306 -0.073804
v 0.134139 0.360234 -0.070648
v 0.115971 0.527739 -0.093063
v 0.123208 0.576857 -0.088879
v 0.015521 0.543918 -0.088527
v -0.045106 0.282003 -0.055993
v -0.067994 0.281875 -0.058963
v -0.047381 0.263519 -0.065460
v -0.050197 0.346413 -0.056653
v 0.125070 0.337229 -0.072454
v 0.150447 0.359157 -0.075385
v 0.136534 0.574137 -0.097396
v 0.124817 0.595367 -0.098191
v -0.002578 0.303638 -0.063535
v 0.008627 0.299485 -0.074656
v -0.006856 0.346855 -0.066468
v 0.342079 0.292709 -0.067966
v 0.313412 0.299739 -0.074794
v 0.348239 0.312391 -0.069957
v 0.261683 0.425281 -0.095450
v 0.323913 0.433043 -0.081815
v 0.314135 0.384616 -0.076139
v 0.362301 0.481506 -0.087812
v 0.336812 0.504675 -0.096890
v 0.364111 0.505074 -0.089641
v -0.267934 0.526125 0.021625
v -0.274231 0.484752 -0.007342
v -0.284505 0.484623 0.046866
v -0.263596 0.431878 0.013094
v 0.308249 0.287326 -0.064975
v 0.250097 0.382227 -0.075192
v 0.334779 0.519665 -0.090325
v 0.177751 0.483346 -0.095162
v 0.181950 0.494819 -0.088362
v 0.264763 0.466032 -0.084927
v 0.120134 0.531386 -0.092313
v 0.151710 0.399644 -0.078388
v 0.133725 0.359665 -0.078492
v 0.109326 0.367306 -0.073804
v 0.115971 0.527739 -0.093063
v 0.015521 0.543918 -0.088527
v 0.122321 0.575776 -0.104664
v -0.048605 0.283518 -0.071375
v -0.047381 0.263519 -0.065460
v -0.067994 0.281875 -0.058963
v -0.050197 0.346413 -0.056653
v 0.125070 0.337229 -0.072454
v 0.150447 0.359157 -0.075385
v 0.136534 0.574137 -0.097396
v 0.124817 0.595367 -0.098191
v -0.006077 0.305153 -0.078916
v -0.006856 0.346855 -0.066468
v 0.008627 0.299485 -0.074656
v 0.115689 0.007686 -0.291744
v 0.172623 0.214576 -0.005764
v 0.279084 0.151136 0.148462
v 0.273908 0.135471 0.064716
v 0.232826 0.140826 0.243412
v 0.186237 0.125278 0.273903
v 0.220525 0.123583 0.328913
v 0.264630 0.133360 0.327269
v 0.277816 0.138993 0.222521
v 0.314760 0.139096 0.312303
v 0.090469 0.280862 0.015567
v 0.061333 0.275265 0.013312
v 0.122912 0.206765 0.037848
v 0.063694 0.007498 -0.287067
v 0.058765 0.059165 -0.279770
v 0.005897 0.292290 -0.099360
v 0.009454 0.297540 -0.118470
v 0.079793 0.326404 -0.178534
v 0.096936 0.302007 -0.181846
v -0.003502 0.007562 -0.242473
v 0.273345 0.087326 0.355144
v 0.331539 0.094073 0.344205
v 0.027954 0.330299 -0.139375
v 0.055047 0.335582 -0.164892
v 0.048024 0.157175 -0.270040
v 0.003008 0.273619 -0.063204
v 0.001696 0.004300 -0.096819
v 0.096743 0.002186 0.009142
v 0.141559 0.288023 -0.028939
v 0.391068 0.090846 0.254230
v 0.375803 0.094450 0.302712
v 0.377845 0.049410 0.294450
v 0.394847 0.043361 0.242755
v 0.279693 0.046711 0.369432
v 0.339421 0.053163 0.348196
v 0.357680 0.139952 0.281733
v 0.374795 0.075904 0.184452
v 0.346228 0.126019 0.181174
v 0.378523 0.132323 0.250372
v 0.305262 0.062298 0.046007
v 0.165843 0.071640 0.305154
v 0.214668 0.081095 0.344139
v 0.376921 0.014175 0.193740
v 0.130593 0.000983 0.126847
v 0.295997 -0.003831 0.040022
v 0.178022 0.004987 -0.238788
v 0.110616 0.075722 0.161821
v 0.137189 0.143163 0.158953
v 0.210846 0.041633 0.346692
v 0.130593 0.000983 0.126847
v 0.242258 -0.002168 -0.055171
v 0.295997 -0.003831 0.040022
v 0.156518 0.018368 0.280785
v 0.202030 0.144913 0.194556
v 0.311026 0.142561 0.196684
v -0.203646 0.224242 -0.016743
v -0.204352 0.211985 -0.015874
v 0.110096 0.295456 -0.170684
v 0.001696 0.004300 -0.096819
v 0.178022 0.004987 -0.238788
v 0.242258 -0.002168 -0.055171
v 0.096743 0.002186 0.009142
v -0.085721 0.054743 -0.288394
v -0.054073 0.007000 -0.246356
v -0.091543 0.004989 -0.285982
v 0.007741 0.339106 -0.056195
v 0.055047 0.335582 -0.164892
v 0.048024 0.157175 -0.270040
v 0.058765 0.059165 -0.279770
v -0.028217 0.006359 -0.172847
v 0.148589 0.007131 -0.270240
v 0.122912 0.206765 0.037848
v 0.123508 0.194043 0.036729
v -0.125519 0.002624 -0.298677
v -0.058518 0.288207 -0.083705
v -0.057293 0.300050 -0.108926
v -0.261827 0.153813 0.191918
v -0.291039 0.142050 0.234977
v -0.241858 0.125379 0.264778
v -0.194773 0.149383 0.156565
v -0.321675 0.133360 0.317616
v -0.276797 0.123583 0.319218
v -0.338569 0.140755 0.215006
v -0.373363 0.139096 0.303564
v -0.203646 0.224242 -0.016743
v -0.173570 0.284399 -0.043648
v -0.085721 0.054743 -0.288394
v -0.091543 0.004989 -0.285982
v -0.142526 0.324237 -0.213135
v -0.149403 0.310108 -0.190493
v -0.083108 0.148488 -0.280461
v -0.119982 0.355526 -0.204478
v -0.072353 0.346607 -0.160919
v -0.093300 0.357859 -0.191918
v -0.062972 0.346598 -0.086160
v 0.172623 0.214576 -0.005764
v 0.172564 0.200915 -0.006944
v -0.055134 0.306050 -0.131057
v -0.221660 0.071640 0.296308
v -0.271198 0.081095 0.334542
v -0.267404 0.041633 0.337145
v -0.211931 0.018368 0.272097
v -0.391536 0.094073 0.336015
v -0.400096 0.053163 0.340465
v -0.337893 0.046711 0.359960
v -0.331247 0.087326 0.345721
v -0.430533 0.010031 0.178963
v -0.458077 0.043361 0.238274
v -0.453569 0.090846 0.248923
v -0.437820 0.076723 0.178979
v -0.439244 0.132377 0.243484
v -0.409318 0.128053 0.174627
v -0.417666 0.139952 0.274112
v -0.437790 0.094450 0.296379
v -0.440819 0.049410 0.289167
v -0.183144 0.000649 0.118385
v -0.354295 -0.001307 0.030769
v -0.167961 0.077068 0.157002
v -0.183144 0.000649 0.118385
v -0.364158 0.066163 0.041081
v -0.327217 0.142271 0.061202
v -0.307382 -0.001794 -0.059220
v -0.354295 -0.001307 0.030769
v -0.373807 0.144938 0.189832
v -0.340766 0.160643 0.142621
v -0.177713 -0.003445 -0.246437
v -0.120496 0.279311 0.018979
v -0.097869 0.334747 0.007762
v -0.111202 0.375645 0.000918
v -0.118821 0.289715 0.016437
v -0.146860 0.001327 0.000903
v -0.037519 0.004331 -0.135765
v -0.146860 0.001327 0.000903
v -0.307382 -0.001794 -0.059220
v -0.177713 -0.003445 -0.246437
v -0.152228 0.221107 0.035185
v -0.037519 0.004331 -0.135765
v -0.093300 0.357859 -0.191918
v -0.083108 0.148488 -0.280461
v -0.153491 0.004142 -0.297971
v -0.032859 0.006373 -0.183872
v -0.103627 0.275603 0.016549
v 0.123508 0.194043 0.036729
v 0.093131 0.292569 0.013755
v -0.152228 0.221107 0.035185
v -0.152014 0.208005 0.032090
v 0.153356 0.360524 -0.066314
v 0.154015 0.394673 -0.063012
v 0.139357 0.298408 -0.027671
v 0.147250 0.204861 0.017274
v 0.202345 0.128349 0.195153
v 0.245749 0.137794 0.169245
v 0.279623 0.134581 0.148354
v -0.304569 0.145035 0.162032
v -0.261552 0.135712 0.191902
v -0.143804 0.298308 -0.004218
v -0.178028 0.214842 0.017614
v -0.152014 0.208005 0.032090
v -0.169550 0.294880 -0.040730
v -0.204352 0.211985 -0.015874
v -0.341417 0.142765 0.142622
v 0.116471 0.299815 -0.003781
v 0.118910 0.393314 -0.028062
v 0.063694 0.007498 -0.287067
v -0.271198 0.081095 0.334542
v -0.453569 0.090846 0.248923
v -0.439244 0.132377 0.243484
v -0.276797 0.123583 0.319218
v 0.081940 0.386097 -0.003892
v 0.141559 0.288023 -0.028939
v 0.072073 0.344801 -0.000725
v 0.168670 0.372691 -0.084163
v -0.180547 0.353060 -0.067684
v -0.187894 0.389841 -0.061976
v -0.156635 0.393313 -0.024590
v -0.120496 0.279311 0.018979
v -0.118821 0.289715 0.016437
v -0.207143 0.372382 -0.087840
v 0.011182 0.350471 -0.101876
v 0.037760 0.379428 -0.129558
v 0.128164 0.365276 -0.179565
v 0.144606 0.350917 -0.168227
v 0.074748 0.393103 -0.158194
v 0.105776 0.375417 -0.175470
v 0.003200 0.343974 -0.077727
v 0.074748 0.393103 -0.158194
v -0.058197 0.355951 -0.106673
v -0.058049 0.361684 -0.126315
v -0.098217 0.404241 -0.180440
v -0.126175 0.402623 -0.191344
v -0.150932 0.368982 -0.183065
v -0.078437 0.386862 -0.153861
v -0.098217 0.404241 -0.180440
v -0.148990 0.388008 -0.203023
v -0.148990 0.388008 -0.203023
v -0.113325 0.562945 -0.065422
v -0.194447 0.548139 -0.027315
v -0.167907 0.477543 -0.000778
v -0.115204 0.475437 -0.012237
v 0.013064 0.556811 -0.087689
v -0.011474 0.470811 -0.025253
v 0.112429 0.365837 -0.074616
v 0.113126 0.457337 -0.041856
v -0.052321 0.338453 -0.061794
v 0.156261 0.392059 -0.077404
v 0.165771 0.447611 -0.052761
v -0.219187 0.391543 -0.022652
v -0.134549 0.363036 -0.051514
v -0.113325 0.562945 -0.065422
v -0.120785 0.468840 -0.093966
v -0.224207 0.479820 -0.038894
v -0.194447 0.548139 -0.027315
v 0.013064 0.556811 -0.087689
v -0.017471 0.463416 -0.124981
v 0.112429 0.365837 -0.074616
v -0.052321 0.338453 -0.061794
v 0.108673 0.451627 -0.124284
v 0.156261 0.392059 -0.077404
v 0.162522 0.443536 -0.113010
v -0.219187 0.391543 -0.022652
v -0.134549 0.363036 -0.051514
v -0.382090 0.438614 0.158339
v -0.369275 0.431170 0.165820
v -0.383080 0.426676 0.185458
v -0.395100 0.433840 0.188808
v -0.365220 0.446250 0.169712
v -0.390796 0.438521 0.205563
v -0.269563 0.472901 0.009610
v -0.378035 0.453695 0.162230
v -0.257856 0.465394 0.016701
v -0.274725 0.457758 0.005328
v -0.263018 0.450252 0.012419
v -0.395102 0.442004 0.199413
v -0.125519 0.002624 -0.298677
v -0.091543 0.004989 -0.285982
v -0.054073 0.007000 -0.246356
v 0.063694 0.007498 -0.287067
v 0.115689 0.007686 -0.291744
v -0.003502 0.007562 -0.242473
vn -0.9439 -0.0676 0.3233
vn -0.8972 -0.0684 0.4362
vn -0.6281 0.3348 0.7024
vn 0.1383 -0.9727 0.1866
vn 0.5458 -0.7924 0.2722
vn 0.3720 -0.8772 0.3035
vn 0.1396 -0.9589 0.2470
vn -0.9751 0.0978 -0.1989
vn -0.8219 0.2322 -0.5201
vn -0.7650 0.0714 -0.6400
vn -0.9873 0.0546 0.1494
vn -0.9991 -0.0014 -0.0427
vn 0.0451 -0.9822 0.1824
vn 0.0785 -0.9646 0.2519
vn -0.0545 -0.9266 0.3721
vn -0.6831 0.2725 -0.6776
vn -0.8283 0.1567 -0.5379
vn -0.6625 0.2704 -0.6986
vn 0.5508 0.6563 -0.5156
vn 0.2364 0.6272 -0.7421
vn 0.1804 0.8972 0.4031
vn -0.8153 0.3532 -0.4588
vn -0.9254 0.3762 -0.0452
vn -0.8259 -0.0121 -0.5636
vn -0.8287 0.0197 -0.5594
vn -0.8282 0.0129 -0.5603
vn 0.9039 0.1541 -0.3989
vn 0.8698 0.1574 -0.4676
vn 0.8639 0.4803 -0.1515
vn 0.5054 0.0882 -0.8583
vn 0.7402 0.2010 -0.6416
vn 0.6552 -0.0789 -0.7513
vn 0.9031 -0.0089 -0.4294
vn 0.9550 -0.2230 -0.1956
vn 0.9284 0.2737 0.2515
vn 0.1805 0.3707 -0.9110
vn -0.0359 -0.0141 -0.9993
vn 0.2051 0.4931 0.8455
vn 0.5069 0.4214 0.7520
vn 0.5357 0.3967 0.7454
vn 0.4488 0.3958 0.8012
vn 0.5822 0.4950 0.6450
vn -0.9052 0.3953 0.1560
vn -0.3829 0.5518 0.7409
vn 0.5643 0.6477 -0.5119
vn 0.5769 0.5989 -0.5554
vn -0.9318 0.3500 0.0962
vn 0.7502 0.6292 0.2035
vn -0.6675 0.0638 0.7419
vn -0.7845 -0.0424 0.6187
vn -0.1152 -0.9772 0.1785
vn -0.3212 -0.9009 0.2919
vn -0.4665 -0.8459 0.2587
vn -0.1322 -0.9580 0.2545
vn 0.9902 -0.0036 0.1396
vn 0.9853 -0.1289 -0.1118
vn 0.9913 -0.0186 -0.1306
vn -0.9067 0.0310 -0.4207
vn -0.9436 0.2858 0.1670
vn -0.8932 -0.2229 -0.3905
vn 0.9392 -0.1173 0.3228
vn 0.6563 0.2963 0.6939
vn 0.8826 -0.1244 0.4533
vn -0.8299 0.2431 -0.5022
vn -0.7943 0.5531 -0.2514
vn -0.8674 0.1378 -0.4782
vn -0.0380 -0.9831 0.1792
vn 0.0558 -0.9241 0.3781
vn -0.0727 -0.9630 0.2595
vn -0.8358 -0.0308 0.5482
vn -0.8323 -0.0343 0.5532
vn -0.8331 -0.0336 0.5522
vn 0.8289 0.0155 0.5592
vn 0.9789 0.0660 0.1932
vn -0.4775 0.0627 -0.8764
vn -0.5943 -0.0330 -0.8036
vn -0.8677 0.1228 -0.4816
vn -0.1317 0.2877 -0.9486
vn 0.2188 -0.0499 -0.9745
vn 0.8435 -0.0480 -0.5350
vn 0.8807 0.1777 -0.4390
vn -0.6054 0.3911 0.6932
vn -0.7748 0.5637 0.2863
vn -0.4635 0.4113 0.7849
vn -0.4452 0.4260 0.7876
vn -0.5471 0.4245 0.7214
vn -0.6730 0.4912 0.5530
vn 0.7847 0.2618 0.5619
vn 0.8536 0.2404 0.4621
vn 0.9572 0.1096 0.2680
vn 0.9886 0.0488 0.1427
vn -0.7774 0.5789 -0.2461
vn -0.7047 0.6148 -0.3542
vn 0.7025 0.2881 -0.6508
vn -0.8301 0.5492 -0.0967
vn -0.8210 0.5413 -0.1815
vn 0.8897 0.2436 0.3862
vn 0.8592 0.2470 0.4481
vn -0.8370 0.5355 0.1121
vn 0.7870 -0.0214 0.6166
vn 0.8236 -0.0300 0.5664
vn 0.7967 -0.0236 0.6039
vn 0.6570 0.2703 -0.7038
vn 0.6855 0.2702 -0.6761
vn 0.6365 0.3091 -0.7066
vn 0.7240 0.2782 -0.6312
vn -0.6190 0.3096 -0.7218
vn -0.6799 0.2946 -0.6715
vn -0.9513 -0.2231 0.2129
vn 0.8778 0.0192 -0.4786
vn 0.8458 -0.0031 -0.5334
vn 0.8717 0.0147 -0.4899
vn 0.2780 0.0871 -0.9566
vn 0.7952 0.1614 -0.5845
vn 0.9545 -0.2670 -0.1331
vn 0.9155 -0.3286 -0.2323
vn -0.8702 -0.2115 -0.4450
vn -0.8566 -0.1069 -0.5048
vn 0.3320 -0.1454 0.9320
vn 0.2962 0.1262 0.9467
vn -0.0840 -0.2815 0.9559
vn 0.0631 0.1000 0.9930
vn 0.3124 0.1582 0.9367
vn 0.2539 -0.0158 0.9671
vn 0.2489 -0.0149 0.9684
vn 0.3061 0.1942 0.9320
vn 0.0656 0.3371 0.9392
vn 0.3582 0.4432 0.8218
vn 0.2840 -0.0100 0.9588
vn 0.3523 0.0071 0.9359
vn 0.3108 -0.4346 0.8453
vn -0.2342 -0.2032 0.9507
vn -0.2541 -0.5510 0.7948
vn -0.0415 0.5474 0.8359
vn 0.2247 0.5406 0.8107
vn -0.0722 0.4781 0.8753
vn 0.2374 0.5868 0.7742
vn 0.2047 0.5398 0.8165
vn 0.0920 0.1523 0.9841
vn -0.0953 0.1072 0.9897
vn 0.0869 0.0128 0.9961
vn 0.1146 -0.1011 0.9883
vn 0.2437 0.1898 0.9511
vn -0.0135 0.0547 0.9984
vn 0.1276 -0.2800 0.9515
vn -0.1257 -0.1747 0.9766
vn 0.1790 -0.4985 0.8482
vn 0.1274 0.0400 0.9910
vn 0.0140 -0.0837 0.9964
vn 0.2778 -0.0187 0.9605
vn 0.5464 0.0614 0.8353
vn 0.1502 0.4339 0.8884
vn 0.4743 -0.1470 0.8680
vn 0.6090 -0.2160 0.7632
vn 0.2796 0.0616 0.9582
vn 0.1577 -0.2776 -0.9477
vn -0.1171 -0.3545 -0.9277
vn 0.1629 -0.0723 -0.9840
vn 0.0599 -0.1155 -0.9915
vn 0.2206 -0.2100 -0.9525
vn 0.2814 -0.0593 -0.9578
vn 0.1799 -0.1810 -0.9669
vn 0.0210 0.1661 -0.9859
vn 0.2559 0.0393 -0.9659
vn -0.7540 0.3936 -0.5258
vn -0.8195 0.0727 -0.5684
vn -0.9825 0.0069 -0.1862
vn -0.7676 -0.2710 -0.5809
vn -0.2416 -0.5382 -0.8074
vn -0.2282 -0.4058 -0.8850
vn -0.0645 0.3930 -0.9173
vn 0.2267 0.3591 -0.9053
vn 0.2453 0.4263 -0.8707
vn -0.0790 0.2904 -0.9536
vn 0.1284 0.3548 -0.9261
vn -0.0128 0.0084 -0.9999
vn -0.0180 -0.1314 -0.9912
vn -0.1993 -0.0356 -0.9793
vn 0.0044 -0.2353 -0.9719
vn -0.1251 -0.0813 -0.9888
vn 0.1347 0.0569 -0.9892
vn -0.3044 -0.0929 -0.9480
vn -0.2230 -0.3244 -0.9193
vn -0.5394 0.0044 -0.8420
vn -0.3081 0.2286 -0.9235
vn -0.0899 -0.2263 -0.9699
vn 0.1757 -0.1588 -0.9716
vn 0.4494 -0.0568 -0.8915
vn 0.0469 0.3080 -0.9502
vn 0.0498 0.0369 -0.9981
vn -0.1558 0.2502 -0.9556
vn 0.2134 -0.0447 -0.9759
vn 0.1267 -0.0818 -0.9886
vn 0.7562 0.6065 0.2455
vn 0.4727 0.8682 -0.1511
vn 0.7482 0.6018 -0.2795
vn -0.1242 0.9886 0.0856
vn -0.5466 0.7577 0.3564
vn -0.3797 0.7078 0.5957
vn -0.0589 0.8283 0.5571
vn -0.0540 0.9985 -0.0067
vn 0.1840 0.8682 0.4608
vn 0.2168 0.3537 0.9099
vn -0.5084 0.1279 0.8516
vn 0.2597 0.5986 0.7578
vn -0.3947 0.0542 -0.9172
vn -0.4758 0.0562 -0.8778
vn -0.9971 0.0708 -0.0285
vn -0.9640 0.1688 -0.2053
vn -0.1703 0.3242 -0.9305
vn 0.5736 0.2358 -0.7845
vn -0.7642 0.0860 -0.6393
vn -0.0156 0.3661 0.9305
vn 0.4310 0.3790 0.8189
vn -0.7899 0.2866 -0.5421
vn -0.5495 0.3486 -0.7593
vn -0.5296 0.2547 -0.8091
vn -0.8786 -0.0247 0.4770
vn -0.8618 -0.2232 0.4555
vn -0.8370 -0.3250 0.4403
vn 0.7955 0.2735 0.5406
vn 0.9761 0.2155 0.0280
vn 0.8032 0.2721 0.5299
vn 0.8872 0.0200 0.4610
vn 0.9953 0.0371 -0.0898
vn -0.0101 0.2289 0.9734
vn 0.5298 0.1566 0.8336
vn 0.4703 0.8382 0.2762
vn 0.8987 0.1910 -0.3948
vn 0.6394 0.7010 -0.3157
vn 0.7320 0.6779 -0.0680
vn 0.8768 0.1628 -0.4525
vn -0.8190 0.1488 0.5542
vn -0.4767 0.2749 0.8350
vn 0.9230 -0.0088 -0.3847
vn 0.0016 -0.9981 0.0610
vn -0.0025 -0.9986 0.0529
vn 0.8733 -0.0480 -0.4848
vn -0.9413 0.0176 0.3372
vn -0.6199 0.6440 0.4483
vn -0.5320 0.0467 0.8454
vn -0.9234 -0.2885 0.2533
vn 0.9071 -0.0821 -0.4128
vn 0.8794 -0.0790 -0.4695
vn -0.8976 -0.1675 0.4078
vn -0.1772 0.9479 0.2647
vn 0.1652 0.9816 -0.0958
vn 0.7603 -0.0155 0.6494
vn 0.6766 0.1364 -0.7236
vn -0.0203 -0.9995 -0.0241
vn -0.0196 -0.9995 -0.0251
vn -0.0268 -0.9996 -0.0100
vn -0.0266 -0.9996 -0.0105
vn 0.6279 -0.0297 -0.7777
vn 0.8356 -0.1162 -0.5368
vn 0.5946 -0.1220 -0.7947
vn -0.8198 -0.0682 0.5685
vn -0.0129 -0.9996 -0.0257
vn -0.0120 -0.9996 -0.0246
vn 0.8991 0.0358 -0.4362
vn 0.1576 -0.1381 -0.9778
vn 0.9949 0.1001 0.0130
vn 0.9901 0.0624 0.1258
vn 0.2166 0.9056 0.3647
vn 0.1188 0.9826 0.1425
vn 0.5524 0.7355 0.3923
vn 0.6489 0.5685 0.5058
vn 0.0660 0.8259 0.5600
vn 0.3754 0.7065 0.5999
vn 0.0320 0.9985 0.0444
vn -0.1647 0.8677 0.4689
vn -0.6334 0.6069 0.4801
vn -0.6730 0.3730 0.6387
vn -0.7928 0.1768 -0.5833
vn -0.9131 0.0942 -0.3967
vn 0.6265 0.2016 -0.7529
vn 0.2244 0.3019 -0.9266
vn 0.8728 0.2036 -0.4435
vn 0.6346 0.2961 -0.7138
vn 0.9957 0.0805 0.0468
vn -0.4481 0.1072 0.8875
vn -0.0844 0.5760 0.8131
vn 0.9913 0.1172 -0.0595
vn 0.8116 0.1494 0.5648
vn 0.4686 0.2751 0.8395
vn 0.5222 0.0464 0.8515
vn 0.8972 -0.1460 0.4167
vn -0.3995 0.3914 0.8290
vn -0.4975 0.1680 0.8510
vn 0.0219 0.2296 0.9730
vn 0.0273 0.3681 0.9294
vn -0.9126 -0.0455 -0.4063
vn -0.9953 0.0106 -0.0968
vn -0.9739 0.2242 0.0360
vn -0.8988 0.1800 -0.3996
vn -0.7293 0.6823 -0.0513
vn -0.6558 0.6838 -0.3199
vn -0.4525 0.8435 0.2895
vn -0.7825 0.2981 0.5467
vn -0.8738 0.0420 0.4846
vn -0.0031 -0.9986 0.0534
vn -0.0012 -0.9989 0.0476
vn 0.9346 0.0119 0.3555
vn 0.9269 -0.2583 0.2724
vn -0.8589 0.2024 -0.4704
vn -0.7090 0.6236 -0.3294
vn -0.8490 -0.0058 -0.5284
vn -0.8809 -0.0467 -0.4711
vn -0.2118 0.9745 -0.0739
vn -0.5248 0.8287 -0.1945
vn -0.8598 0.0068 -0.5106
vn 0.1990 0.2346 0.9515
vn 0.2604 0.1370 0.9557
vn -0.4202 0.1628 0.8927
vn -0.2318 0.2365 0.9436
vn 0.8271 -0.3372 0.4497
vn 0.0544 -0.9984 -0.0169
vn 0.0208 -0.9997 0.0106
vn 0.0194 -0.9998 0.0095
vn 0.0650 -0.9974 -0.0297
vn 0.1533 0.5547 0.8178
vn 0.9361 -0.2106 0.2816
vn 0.0700 -0.9968 -0.0374
vn 0.0843 -0.9950 -0.0537
vn 0.5994 0.0701 0.7974
vn 0.2819 0.7210 0.6331
vn 0.1952 0.2603 0.9456
vn -0.8527 0.2057 -0.4803
vn -0.8423 0.1068 -0.5284
vn 0.8463 0.1102 0.5212
vn 0.7867 0.1132 0.6069
vn 0.7924 0.1579 0.5892
vn 0.4291 0.6894 0.5836
vn -0.0663 0.9837 0.1674
vn 0.0289 0.9912 0.1292
vn 0.1143 0.9905 0.0770
vn -0.0636 0.9830 0.1725
vn 0.0179 0.9769 0.2131
vn -0.6291 0.2471 0.7370
vn -0.4060 0.7477 0.5255
vn -0.2697 0.6980 0.6634
vn -0.8814 0.1260 0.4553
vn -0.5445 0.7176 0.4342
vn -0.1085 0.9879 0.1105
vn 0.5995 0.2660 0.7549
vn 0.6330 0.1784 0.7533
vn 0.3979 -0.2588 -0.8802
vn 0.4019 0.2100 0.8913
vn -0.2080 0.1692 0.9634
vn -0.2409 0.1835 0.9530
vn 0.6998 0.2193 0.6798
vn -0.8725 0.0152 0.4883
vn -0.8484 -0.0191 0.5290
vn -0.6976 0.0609 0.7139
vn -0.8529 0.2982 -0.4286
vn -0.6283 0.1442 0.7645
vn -0.9085 0.1606 -0.3858
vn -0.7306 0.2700 -0.6271
vn 0.1820 -0.0598 -0.9815
vn 0.6261 -0.2949 -0.7218
vn -0.5160 0.2692 -0.8132
vn -0.2421 0.1734 -0.9546
vn -0.9951 0.0407 -0.0903
vn 0.9945 0.0367 0.0984
vn 0.9644 0.0984 -0.2455
vn 0.6079 0.2615 -0.7497
vn 0.2992 0.2566 -0.9190
vn -0.9507 -0.0380 -0.3078
vn 0.8619 0.1873 -0.4712
vn 0.2019 0.2230 -0.9537
vn -0.9737 -0.0312 -0.2258
vn 0.2015 0.5056 0.8389
vn 0.3313 0.4602 0.8237
vn 0.3133 0.0401 0.9488
vn 0.1883 0.0944 0.9776
vn 0.1606 0.5399 0.8263
vn 0.1400 0.1335 0.9811
vn 0.1426 -0.3347 0.9315
vn 0.1984 0.1189 0.9729
vn 0.0874 -0.3117 0.9462
vn 0.1142 -0.3523 0.9289
vn 0.1819 0.0918 0.9790
vn 0.2564 -0.3896 0.8846
vn 0.1229 -0.3288 0.9363
vn -0.3131 0.3375 -0.8877
vn -0.3418 0.0113 -0.9397
vn -0.5472 0.0707 -0.8340
vn -0.4706 0.3572 -0.8068
vn -0.0666 0.3635 -0.9292
vn -0.1116 -0.0282 -0.9934
vn 0.0602 -0.4933 -0.8678
vn -0.1566 -0.4079 -0.8995
vn 0.1129 -0.0720 -0.9910
vn 0.1039 -0.5189 -0.8485
vn 0.1754 -0.1101 -0.9783
vn -0.5132 -0.2500 -0.8211
vn -0.3449 -0.3042 -0.8880
vn -0.8077 -0.3029 -0.5058
vn 0.3313 -0.9368 0.1124
vn 0.1726 -0.9648 0.1984
vn -0.9024 -0.4207 -0.0937
vn 0.7269 0.3684 0.5796
vn 0.1153 -0.1427 0.9830
vn -0.3134 0.9440 -0.1028
vn -0.4127 0.9095 -0.0493
vn 0.7446 0.3541 0.5658
vn -0.7534 -0.3267 -0.5706
vn 0.3516 -0.9271 0.1295
vn -0.6942 0.4096 0.5918
vn 0.0270 -0.9996 0.0117
vn -0.0049 -0.9999 -0.0154
vt 0.437401 0.526567
vt 0.587409 0.556602
vt 0.635225 0.496798
vt 0.900462 0.808754
vt 0.938967 0.806496
vt 0.963324 0.791763
vt 0.972095 0.767965
vt 0.389310 0.505545
vt 0.372438 0.440647
vt 0.363882 0.504097
vt 0.411200 0.513050
vt 0.399361 0.552482
vt 0.889914 0.715293
vt 0.958905 0.738918
vt 0.928255 0.718460
vt 0.521067 0.456341
vt 0.548000 0.414736
vt 0.538472 0.403226
vt 0.558474 0.427580
vt 0.548000 0.414736
vt 0.521067 0.456341
vt 0.495304 0.416675
vt 0.487288 0.420104
vt 0.134194 0.154138
vt 0.155288 0.203930
vt 0.155816 0.204163
vt 0.889055 0.353921
vt 0.884538 0.192170
vt 0.815025 0.383187
vt 0.903101 0.122202
vt 0.896941 0.150716
vt 0.942315 0.140747
vt 0.782075 0.214755
vt 0.731679 0.283546
vt 0.773352 0.333366
vt 0.852471 0.096884
vt 0.910349 0.096883
vt 0.488751 0.483673
vt 0.498955 0.489093
vt 0.515766 0.493208
vt 0.535014 0.491882
vt 0.550847 0.485875
vt 0.481858 0.463387
vt 0.482679 0.474729
vt 0.559486 0.468766
vt 0.560158 0.448448
vt 0.481858 0.438457
vt 0.557394 0.478899
vt 0.577412 0.398566
vt 0.525688 0.380643
vt 0.774273 0.924443
vt 0.706052 0.902684
vt 0.731689 0.923703
vt 0.701434 0.879828
vt 0.075405 0.554026
vt 0.031493 0.560416
vt 0.069938 0.581806
vt 0.476236 0.277449
vt 0.363389 0.245179
vt 0.386733 0.293364
vt 0.073293 0.519003
vt 0.163922 0.332083
vt 0.094436 0.357930
vt 0.389023 0.141956
vt 0.340044 0.196994
vt 0.536612 0.204285
vt 0.786154 0.832452
vt 0.739047 0.839863
vt 0.715915 0.856054
vt 0.847825 0.553412
vt 0.835877 0.509969
vt 0.835975 0.509940
vt 0.239624 0.412283
vt 0.240620 0.475115
vt 0.603218 0.208205
vt 0.600317 0.165356
vt 0.577009 0.205614
vt 0.612247 0.267473
vt 0.626877 0.208971
vt 0.069812 0.612446
vt 0.120422 0.614446
vt 0.102013 0.470875
vt 0.130107 0.508093
vt 0.118126 0.468785
vt 0.133978 0.467587
vt 0.148225 0.474682
vt 0.162834 0.483981
vt 0.089718 0.492769
vt 0.130107 0.508093
vt 0.097169 0.481221
vt 0.102013 0.470875
vt 0.159829 0.549830
vt 0.148298 0.558263
vt 0.093204 0.544716
vt 0.130107 0.508093
vt 0.083549 0.538904
vt 0.165968 0.501726
vt 0.170233 0.530640
vt 0.083549 0.538904
vt 0.084965 0.517686
vt 0.166205 0.490839
vt 0.224346 0.146885
vt 0.191931 0.108970
vt 0.224427 0.147478
vt 0.135929 0.566842
vt 0.130107 0.508093
vt 0.113728 0.566842
vt 0.098249 0.558145
vt 0.521335 0.401596
vt 0.503659 0.404765
vt 0.130107 0.508093
vt 0.093204 0.544716
vt 0.098249 0.558145
vt 0.750735 0.571452
vt 0.787635 0.604617
vt 0.750827 0.571513
vt 0.495304 0.416675
vt 0.521067 0.456341
vt 0.503659 0.404765
vt 0.148298 0.558263
vt 0.727190 0.226853
vt 0.790564 0.194995
vt 0.447255 0.312570
vt 0.502532 0.283611
vt 0.002667 0.762021
vt -0.001555 0.780108
vt 0.030641 0.768566
vt 0.098811 0.875085
vt 0.041364 0.843508
vt 0.038976 0.887984
vt 0.009064 0.936642
vt 0.010801 0.960258
vt 0.035310 0.956024
vt 0.636714 0.917054
vt 0.660373 0.878188
vt 0.623471 0.879316
vt 0.622098 0.831001
vt 0.102541 0.831574
vt 0.034397 0.757457
vt 0.038166 0.967628
vt 0.188950 0.911335
vt 0.101235 0.909372
vt 0.186338 0.921530
vt 0.254073 0.947003
vt 0.195739 0.822898
vt 0.235547 0.793007
vt 0.210504 0.786114
vt 0.257168 0.939842
vt 0.252126 0.983104
vt 0.355689 0.954067
vt 0.421719 0.715244
vt 0.442248 0.716354
vt 0.423964 0.698794
vt 0.418216 0.771576
vt 0.219337 0.766955
vt 0.195601 0.787218
vt 0.238753 0.981543
vt 0.250599 1.000000
vt 0.377980 0.729405
vt 0.365807 0.723535
vt 0.376286 0.766794
vt 0.002667 0.762021
vt 0.030641 0.768566
vt -0.001555 0.780108
vt 0.098811 0.875085
vt 0.038976 0.887984
vt 0.041364 0.843508
vt 0.009064 0.936642
vt 0.035310 0.956024
vt 0.010801 0.960258
vt 0.636714 0.917054
vt 0.623471 0.879316
vt 0.660373 0.878188
vt 0.622098 0.831001
vt 0.034397 0.757457
vt 0.102541 0.831574
vt 0.038166 0.967628
vt 0.188950 0.911335
vt 0.186338 0.921530
vt 0.101235 0.909372
vt 0.254073 0.947003
vt 0.195739 0.822898
vt 0.210504 0.786114
vt 0.235547 0.793007
vt 0.257168 0.939842
vt 0.355689 0.954067
vt 0.252126 0.983104
vt 0.421719 0.715244
vt 0.423964 0.698794
vt 0.442248 0.716354
vt 0.418216 0.771576
vt 0.219337 0.766955
vt 0.195601 0.787218
vt 0.238753 0.981543
vt 0.250599 1.000000
vt 0.377980 0.729405
vt 0.376286 0.766794
vt 0.365807 0.723535
vt 0.946736 0.111833
vt 0.796308 0.393849
vt 0.835877 0.509969
vt 0.846206 0.449800
vt 0.787635 0.604617
vt 0.760795 0.623716
vt 0.796172 0.650458
vt 0.819661 0.644007
vt 0.820529 0.580423
vt 0.846885 0.626013
vt 0.635782 0.443437
vt 0.606319 0.447682
vt 0.654373 0.484906
vt 0.954151 0.070060
vt 0.915259 0.059475
vt 0.441799 0.432818
vt 0.416786 0.426690
vt 0.810961 0.093838
vt 0.819423 0.129981
vt 0.367983 0.545970
vt 0.834926 0.668490
vt 0.866012 0.650327
vt 0.386579 0.388652
vt 0.342229 0.371621
vt 0.330424 0.433632
vt 0.467739 0.440264
vt 0.444255 0.571458
vt 0.546165 0.602493
vt 0.757125 0.351604
vt 0.895470 0.586621
vt 0.886438 0.623770
vt 0.915076 0.645065
vt 0.924574 0.599987
vt 0.845975 0.691195
vt 0.882258 0.667988
vt 0.866766 0.601753
vt 0.899188 0.524181
vt 0.869019 0.534117
vt 0.876254 0.580570
vt 0.896508 0.424136
vt 0.740066 0.652094
vt 0.794817 0.671824
vt 0.937378 0.522301
vt 0.839376 0.717924
vt 0.840215 0.802464
vt 0.944322 0.178046
vt 0.653965 0.593987
vt 0.693704 0.552473
vt 0.797069 0.698185
vt 0.618294 0.632322
vt 0.944320 0.330488
vt 0.946145 0.404916
vt 0.708205 0.670522
vt 0.750735 0.571452
vt 0.847825 0.553412
vt 0.318880 0.213366
vt 0.310179 0.216187
vt 0.822868 0.160118
vt 0.739873 0.732559
vt 0.729766 0.808484
vt 0.803415 0.801068
vt 0.788325 0.729011
vt 0.063361 0.647047
vt 0.033249 0.598793
vt 0.031043 0.640985
vt 0.476419 0.415569
vt 0.790326 0.047158
vt 0.851601 0.056627
vt 0.322643 0.496404
vt 0.718173 0.737752
vt 0.714747 0.808568
vt 0.654373 0.484906
vt 0.661975 0.480604
vt 0.624642 0.170334
vt 0.154272 0.521129
vt 0.149838 0.552354
vt 0.155288 0.203930
vt 0.134194 0.154138
vt 0.106483 0.173100
vt 0.135071 0.262033
vt 0.107047 0.108280
vt 0.093163 0.128589
vt 0.163635 0.129917
vt 0.131391 0.085787
vt 0.318880 0.213366
vt 0.328603 0.258701
vt 0.653573 0.211439
vt 0.651358 0.176542
vt 0.568106 0.293362
vt 0.545826 0.275537
vt 0.103298 0.651524
vt 0.596252 0.327658
vt 0.168626 0.615465
vt 0.186173 0.655695
vt 0.175552 0.521688
vt 0.796308 0.393849
vt 0.788814 0.398585
vt 0.146203 0.576645
vt 0.067750 0.181437
vt 0.067896 0.121126
vt 0.037244 0.108291
vt 0.033854 0.202921
vt 0.106340 0.048931
vt 0.086709 0.024575
vt 0.054910 0.057320
vt 0.080047 0.080311
vt 0.248973 0.017464
vt 0.173761 0.004538
vt 0.178293 0.025041
vt 0.233759 0.056934
vt 0.177675 0.063940
vt 0.214413 0.090087
vt 0.157267 0.070016
vt 0.136746 0.029321
vt 0.129313 0.010633
vt 0.836666 0.835091
vt 0.835739 0.919691
vt 0.086634 0.287027
vt 0.042350 0.304831
vt 0.325713 0.109983
vt 0.286548 0.146928
vt 0.422845 0.098392
vt 0.359703 0.071320
vt 0.191931 0.108970
vt 0.224346 0.146885
vt 0.567058 0.150919
vt 0.226624 0.338733
vt 0.264364 0.364438
vt 0.273426 0.356926
vt 0.233711 0.331092
vt 0.039466 0.378346
vt 0.933408 0.849527
vt 0.872439 0.843319
vt 0.870980 0.918209
vt 0.934164 0.925908
vt 0.188883 0.313028
vt 0.031776 0.524728
vt 0.622037 0.356321
vt 0.641258 0.277535
vt 0.956394 0.925602
vt 0.955124 0.855830
vt 0.201773 0.372183
vt 0.661975 0.480604
vt 0.644436 0.439394
vt 0.188883 0.313028
vt 0.193995 0.305259
vt 0.717943 0.309358
vt 0.713230 0.318441
vt 0.751022 0.358513
vt 0.726869 0.441694
vt 0.750827 0.571513
vt 0.798202 0.538114
vt 0.835975 0.509940
vt 0.196387 0.177187
vt 0.155816 0.204163
vt 0.275131 0.293697
vt 0.251175 0.258178
vt 0.193995 0.305259
vt 0.320119 0.263431
vt 0.310179 0.216187
vt 0.224427 0.147478
vt 0.701546 0.406843
vt 0.676222 0.371993
vt 0.317753 0.535648
vt 0.067896 0.121126
vt 0.178293 0.025041
vt 0.177675 0.063940
vt 0.093163 0.128589
vt 0.626897 0.398184
vt 0.757125 0.351604
vt 0.617190 0.401969
vt 0.731679 0.283546
vt 0.338326 0.304035
vt 0.330059 0.310675
vt 0.299087 0.329215
vt 0.226624 0.338733
vt 0.233711 0.331092
vt 0.386733 0.293364
vt 0.424648 0.404126
vt 0.390626 0.373774
vt 0.795479 0.132207
vt 0.801672 0.162808
vt 0.772792 0.044449
vt 0.799083 0.092966
vt 0.450555 0.409860
vt 0.345607 0.353878
vt 0.169398 0.551915
vt 0.166244 0.575289
vt 0.616986 0.377025
vt 0.592048 0.343473
vt 0.537631 0.293911
vt 0.181293 0.615733
vt 0.207951 0.656791
vt 0.558879 0.315740
vt 0.558879 0.315740
vt 0.467119 0.952213
vt 0.555564 0.941979
vt 0.532817 0.880439
vt 0.470314 0.880994
vt 0.357123 0.962055
vt 0.370095 0.882558
vt 0.235547 0.793007
vt 0.249846 0.878720
vt 0.393306 0.759139
vt 0.194818 0.821789
vt 0.197225 0.876165
vt 0.563801 0.797638
vt 0.478698 0.771007
vt 0.467119 0.952213
vt 0.470314 0.880994
vt 0.574220 0.880072
vt 0.555564 0.941979
vt 0.357123 0.962055
vt 0.370095 0.882558
vt 0.235547 0.793007
vt 0.393306 0.759139
vt 0.249846 0.878720
vt 0.194818 0.821789
vt 0.197225 0.876165
vt 0.563801 0.797638
vt 0.478698 0.771007
vt 0.275263 0.703966
vt 0.274832 0.685109
vt 0.334958 0.685203
vt 0.321859 0.704302
vt 0.275263 0.703966
vt 0.335423 0.704302
vt 0.008850 0.720257
vt 0.275694 0.722822
vt 0.008569 0.702475
vt 0.008569 0.702475
vt 0.008288 0.684694
vt 0.335888 0.723401
vt 0.966038 0.910943
vt 0.965804 0.893032
vt 0.962796 0.873375
vt 0.709057 0.776848
vt 0.709726 0.795976
vt 0.712416 0.751064
s 1
f 1/1/1 2/2/2 3/3/3
f 4/4/4 5/5/5 6/6/6
f 4/4/4 6/6/6 7/7/7
f 8/8/8 9/9/9 10/10/10
f 11/11/11 8/8/8 12/12/12
f 13/13/13 14/14/14 15/15/15
f 16/16/16 17/17/17 18/18/18
f 19/19/19 20/20/20 21/21/21
f 22/22/22 23/23/23 21/21/21
f 24/24/24 25/25/25 26/26/26
f 27/27/27 28/28/28 29/29/29
f 30/30/30 31/31/31 32/32/32
f 33/33/33 34/34/34 35/35/35
f 36/36/36 30/30/30 37/37/37
f 38/38/38 39/39/39 21/21/21
f 39/39/39 40/40/40 21/21/21
f 40/40/40 41/41/41 21/21/21
f 41/41/41 42/42/42 21/21/21
f 43/43/43 44/44/44 21/21/21
f 44/44/44 38/38/38 21/21/21
f 45/45/45 46/46/46 21/21/21
f 46/46/46 19/19/19 21/21/21
f 23/23/23 47/47/47 21/21/21
f 47/47/47 43/43/43 21/21/21
f 42/42/42 48/48/48 21/21/21
f 48/48/48 45/45/45 21/21/21
f 49/49/49 50/50/50 1/1/1
f 51/51/51 52/52/52 53/53/53
f 51/51/51 54/54/54 52/52/52
f 55/55/55 56/56/56 57/57/57
f 58/58/58 59/59/59 60/60/60
f 61/61/61 62/62/62 63/63/63
f 64/64/64 65/65/65 66/66/66
f 67/67/67 68/68/68 69/69/69
f 70/70/70 71/71/71 72/72/72
f 73/73/73 61/61/61 74/74/74
f 75/75/75 76/76/76 77/77/77
f 78/78/78 79/79/79 75/75/75
f 57/57/57 80/80/80 81/81/81
f 82/82/82 83/83/83 84/84/84
f 84/84/84 83/83/83 85/85/85
f 85/85/85 83/83/83 86/86/86
f 86/86/86 83/83/83 87/87/87
f 88/88/88 89/89/89 90/90/90
f 90/90/90 89/89/89 91/91/91
f 92/92/92 83/83/83 93/93/93
s 0
f 94/94/94 95/95/94 96/96/94
s 1
f 97/97/95 83/83/83 98/98/96
f 98/98/96 83/83/83 92/92/92
f 99/99/97 89/89/89 100/100/98
f 100/100/98 89/89/89 88/88/88
f 87/87/87 83/83/83 101/101/99
f 101/101/99 83/83/83 97/97/95
f 102/102/100 103/103/101 104/104/102
f 105/105/103 106/106/104 107/107/105
f 107/107/105 106/106/104 108/108/106
f 16/16/16 18/18/18 109/109/107
f 109/109/107 110/110/108 16/16/16
s 0
f 111/111/109 112/112/109 113/113/109
s 1
f 114/114/110 115/115/111 116/116/112
s 0
f 117/117/113 118/118/113 119/119/113
s 1
f 120/120/114 106/106/104 105/105/103
f 121/121/115 34/34/34 33/33/33
f 122/122/116 121/121/115 33/33/33
f 123/123/117 58/58/58 60/60/60
f 124/124/118 58/58/58 123/123/117
f 125/125/119 126/126/120 127/127/121
f 128/128/122 129/129/123 130/130/124
f 127/127/121 126/126/120 129/129/123
f 131/131/125 132/132/126 133/133/127
f 133/133/127 130/130/124 131/131/125
f 134/134/128 135/135/129 136/136/130
f 135/135/129 137/137/131 136/136/130
f 127/127/121 138/138/132 139/139/133
f 125/125/119 127/127/121 139/139/133
f 133/133/127 132/132/126 140/140/134
f 141/141/135 142/142/136 143/143/137
f 144/144/138 141/141/135 143/143/137
f 142/142/136 133/133/127 140/140/134
f 128/128/122 138/138/132 127/127/121
f 128/128/122 130/130/124 133/133/127
f 129/129/123 128/128/122 127/127/121
f 142/142/136 128/128/122 133/133/127
f 145/145/139 146/146/140 147/147/141
f 148/148/142 149/149/143 150/150/144
f 151/151/145 152/152/146 153/153/147
f 151/151/145 154/154/148 152/152/146
f 147/147/141 146/146/140 155/155/149
f 147/147/141 155/155/149 156/156/150
f 145/145/139 147/147/141 156/156/150
f 149/149/143 148/148/142 157/157/151
f 149/149/143 157/157/151 158/158/152
f 150/150/144 149/149/143 158/158/152
f 159/159/153 160/160/154 161/161/155
f 162/162/156 163/163/157 164/164/158
f 165/165/159 166/166/160 167/167/161
f 163/163/157 167/167/161 164/164/158
f 168/168/162 169/169/163 170/170/164
f 169/169/163 168/168/162 166/166/160
f 171/171/165 172/172/166 173/173/167
f 173/173/167 172/172/166 174/174/168
f 163/163/157 175/175/169 176/176/170
f 162/162/156 175/175/169 163/163/157
f 169/169/163 177/177/171 170/170/164
f 178/178/172 179/179/173 180/180/174
f 181/181/175 179/179/173 178/178/172
f 180/180/174 177/177/171 169/169/163
f 165/165/159 163/163/157 176/176/170
f 165/165/159 169/169/163 166/166/160
f 167/167/161 163/163/157 165/165/159
f 180/180/174 169/169/163 165/165/159
f 182/182/176 183/183/177 184/184/178
f 185/185/179 186/186/180 187/187/181
f 188/188/182 189/189/183 190/190/184
f 188/188/182 190/190/184 191/191/185
f 183/183/177 192/192/186 184/184/178
f 183/183/177 193/193/187 192/192/186
f 182/182/176 193/193/187 183/183/177
f 187/187/181 194/194/188 185/185/179
f 187/187/181 195/195/189 194/194/188
f 186/186/180 195/195/189 187/187/181
f 196/196/190 197/197/191 198/198/192
f 30/30/30 32/32/32 199/199/193
f 30/30/30 199/199/193 37/37/37
f 29/29/29 200/200/194 201/201/195
f 29/29/29 201/201/195 202/202/196
f 203/203/197 204/204/198 205/205/199
f 203/203/197 205/205/199 206/206/200
f 207/207/201 203/203/197 206/206/200
f 207/207/201 206/206/200 208/208/202
f 209/209/203 210/210/204 3/3/3
f 209/209/203 3/3/3 211/211/205
f 37/37/37 199/199/193 212/212/206
f 37/37/37 212/212/206 213/213/207
f 214/214/208 215/215/209 8/8/8
f 214/214/208 8/8/8 11/11/11
f 216/216/210 217/217/211 30/30/30
f 216/216/210 30/30/30 36/36/36
f 10/10/10 218/218/212 12/12/12
f 10/10/10 12/12/12 8/8/8
f 208/208/202 206/206/200 219/219/213
f 208/208/202 219/219/213 220/220/214
f 221/221/215 222/222/216 223/223/217
f 221/221/215 223/223/217 9/9/9
f 224/224/218 214/214/208 11/11/11
f 224/224/218 11/11/11 1/1/1
f 1/1/1 225/225/219 226/226/220
f 1/1/1 226/226/220 2/2/2
f 35/35/35 227/227/221 200/200/194
f 35/35/35 200/200/194 29/29/29
f 228/228/222 229/229/223 230/230/224
f 228/228/222 230/230/224 231/231/225
f 220/220/214 219/219/213 232/232/226
f 220/220/214 232/232/226 233/233/227
f 234/234/228 208/208/202 220/220/214
f 234/234/228 220/220/214 229/229/223
f 235/235/229 236/236/230 237/237/231
f 235/235/229 237/237/231 228/228/222
f 229/229/223 220/220/214 233/233/227
f 229/229/223 233/233/227 230/230/224
f 27/27/27 29/29/29 202/202/196
f 27/27/27 202/202/196 238/238/232
f 204/204/198 239/239/233 240/240/234
f 204/204/198 240/240/234 205/205/199
f 241/241/235 235/235/229 228/228/222
f 241/241/235 228/228/222 231/231/225
f 242/242/236 243/243/237 4/4/4
f 242/242/236 4/4/4 13/13/13
f 13/13/13 4/4/4 7/7/7
f 13/13/13 7/7/7 14/14/14
f 31/31/31 28/28/28 244/244/238
f 31/31/31 244/244/238 32/32/32
f 3/3/3 2/2/2 245/245/239
f 3/3/3 245/245/239 246/246/240
f 219/219/213 240/240/234 247/247/241
f 219/219/213 247/247/241 232/232/226
f 206/206/200 205/205/199 240/240/234
f 206/206/200 240/240/234 219/219/213
f 2/2/2 226/226/220 248/248/242
f 2/2/2 248/248/242 245/245/239
f 249/249/243 27/27/27 238/238/232
f 249/249/243 238/238/232 250/250/244
f 239/239/233 251/251/245 247/247/241
f 239/239/233 247/247/241 240/240/234
f 237/237/231 234/234/228 229/229/223
f 237/237/231 229/229/223 228/228/222
f 211/211/205 3/3/3 246/246/240
f 211/211/205 246/246/240 252/252/246
f 253/253/247 207/207/201 208/208/202
f 253/253/247 208/208/202 234/234/228
f 236/236/230 253/253/247 234/234/228
f 236/236/230 234/234/228 237/237/231
f 244/244/238 28/28/28 27/27/27
f 244/244/238 27/27/27 249/249/243
f 254/254/248 102/102/100 104/104/102
f 254/254/248 104/104/102 255/255/248
f 202/202/196 201/201/195 253/253/247
f 202/202/196 253/253/247 236/236/230
f 256/256/249 33/33/33 28/28/28
f 256/256/249 28/28/28 31/31/31
f 238/238/232 202/202/196 236/236/230
f 238/238/232 236/236/230 235/235/229
f 250/250/244 238/238/232 235/235/229
f 250/250/244 235/235/229 241/241/235
f 1/1/1 11/11/11 12/12/12
f 1/1/1 12/12/12 225/225/219
f 245/245/239 248/248/242 251/251/245
f 245/245/239 251/251/245 239/239/233
f 246/246/240 245/245/239 239/239/233
f 246/246/240 239/239/233 204/204/198
f 257/257/250 258/258/251 259/259/252
f 257/257/250 259/259/252 260/260/253
f 260/260/253 259/259/252 243/243/237
f 260/260/253 243/243/237 242/242/236
f 252/252/246 246/246/240 204/204/198
f 252/252/246 204/204/198 203/203/197
f 261/261/254 80/80/80 262/262/255
f 261/261/254 262/262/255 263/263/256
f 50/50/50 264/264/257 224/224/218
f 50/50/50 224/224/218 1/1/1
f 265/265/216 216/216/210 36/36/36
f 265/265/216 36/36/36 266/266/217
f 217/217/211 256/256/249 31/31/31
f 217/217/211 31/31/31 30/30/30
f 266/266/217 36/36/36 37/37/37
f 266/266/217 37/37/37 213/213/207
f 9/9/9 223/223/217 267/267/207
f 9/9/9 267/267/207 10/10/10
f 268/268/258 269/269/259 258/258/251
f 268/268/258 258/258/251 257/257/250
f 215/215/209 221/221/215 9/9/9
f 215/215/209 9/9/9 8/8/8
f 270/270/260 114/114/110 116/116/112
f 270/270/260 116/116/112 271/271/260
f 49/49/49 1/1/1 3/3/3
f 49/49/49 3/3/3 210/210/204
f 75/75/75 79/79/79 272/272/261
f 75/75/75 272/272/261 76/76/76
f 273/273/262 61/61/61 55/55/55
f 273/273/262 55/55/55 274/274/263
f 275/275/264 276/276/265 277/277/266
f 275/275/264 277/277/266 278/278/267
f 276/276/265 279/279/268 280/280/269
f 276/276/265 280/280/269 277/277/266
f 281/281/270 282/282/271 279/279/268
f 281/281/270 279/279/268 276/276/265
f 59/59/59 65/65/65 283/283/272
f 59/59/59 283/283/272 284/284/273
f 79/79/79 285/285/254 286/286/256
f 79/79/79 286/286/256 272/272/261
f 287/287/274 75/75/75 77/77/77
f 287/287/274 77/77/77 288/288/275
f 81/81/81 80/80/80 261/261/254
f 81/81/81 261/261/254 289/289/276
f 290/290/277 78/78/78 75/75/75
f 290/290/277 75/75/75 287/287/274
f 291/291/278 81/81/81 289/289/276
f 291/291/278 289/289/276 292/292/279
f 80/80/80 57/57/57 56/56/56
f 80/80/80 56/56/56 262/262/255
f 74/74/74 61/61/61 273/273/262
f 74/74/74 273/273/262 293/293/280
f 71/71/71 294/294/281 295/295/282
f 71/71/71 295/295/282 72/72/72
f 296/296/283 57/57/57 81/81/81
f 296/296/283 81/81/81 291/291/278
f 297/297/284 298/298/285 299/299/286
f 297/297/284 299/299/286 300/300/287
f 301/301/288 302/302/289 303/303/290
f 301/301/288 303/303/290 304/304/291
f 305/305/292 306/306/293 307/307/294
f 305/305/292 307/307/294 308/308/295
f 308/308/295 307/307/294 309/309/296
f 308/308/295 309/309/296 310/310/297
f 311/311/298 312/312/299 301/301/288
f 311/311/298 301/301/288 282/282/271
f 304/304/291 303/303/290 299/299/286
f 304/304/291 299/299/286 298/298/285
f 277/277/266 280/280/269 298/298/285
f 277/277/266 298/298/285 297/297/284
f 312/312/299 313/313/300 302/302/289
f 312/312/299 302/302/289 301/301/288
f 314/314/301 67/67/67 51/51/51
f 314/314/301 51/51/51 315/315/302
f 67/67/67 69/69/69 54/54/54
f 67/67/67 54/54/54 51/51/51
f 316/316/303 297/297/284 300/300/287
f 316/316/303 300/300/287 317/317/304
f 62/62/62 278/278/267 316/316/303
f 62/62/62 316/316/303 63/63/63
f 279/279/268 304/304/291 298/298/285
f 279/279/268 298/298/285 280/280/269
f 64/64/64 318/318/305 319/319/306
f 64/64/64 319/319/306 65/65/65
f 318/318/305 308/308/295 310/310/297
f 318/318/305 310/310/297 319/319/306
f 320/320/307 321/321/308 318/318/305
f 320/320/307 318/318/305 64/64/64
f 309/309/296 307/307/294 312/312/299
f 309/309/296 312/312/299 311/311/298
f 307/307/294 306/306/293 313/313/300
f 307/307/294 313/313/300 312/312/299
f 319/319/306 310/310/297 322/322/309
f 319/319/306 322/322/309 323/323/310
f 322/322/309 311/311/298 282/282/271
f 322/322/309 282/282/271 281/281/270
f 310/310/297 309/309/296 311/311/298
f 310/310/297 311/311/298 322/322/309
f 324/324/311 320/320/307 64/64/64
f 324/324/311 64/64/64 66/66/66
f 325/325/312 326/326/313 327/327/314
f 325/325/312 327/327/314 328/328/315
f 65/65/65 319/319/306 323/323/310
f 65/65/65 323/323/310 283/283/272
f 321/321/308 305/305/292 308/308/295
f 321/321/308 308/308/295 318/318/305
f 63/63/63 316/316/303 317/317/304
f 63/63/63 317/317/304 329/329/316
f 278/278/267 277/277/266 297/297/284
f 278/278/267 297/297/284 316/316/303
f 77/77/77 76/76/76 324/324/311
f 77/77/77 324/324/311 66/66/66
f 330/330/317 331/331/318 332/332/319
f 330/330/317 332/332/319 333/333/320
f 331/331/318 314/314/301 315/315/302
f 331/331/318 315/315/302 332/332/319
f 334/334/321 275/275/264 278/278/267
f 334/334/321 278/278/267 62/62/62
f 61/61/61 63/63/63 329/329/316
f 61/61/61 329/329/316 335/335/322
f 288/288/275 77/77/77 66/66/66
f 288/288/275 66/66/66 58/58/58
f 336/336/279 337/337/276 78/78/78
f 336/336/279 78/78/78 290/290/277
f 282/282/271 301/301/288 304/304/291
f 282/282/271 304/304/291 279/279/268
f 274/274/263 55/55/55 57/57/57
f 274/274/263 57/57/57 296/296/283
f 337/337/276 285/285/254 79/79/79
f 337/337/276 79/79/79 78/78/78
f 338/338/323 339/339/324 330/330/317
f 338/338/323 330/330/317 333/333/320
f 325/325/312 334/334/321 62/62/62
f 325/325/312 62/62/62 340/340/325
f 209/209/203 211/211/205 341/341/326
f 209/209/203 341/341/326 342/342/327
f 61/61/61 335/335/322 56/56/56
f 61/61/61 56/56/56 55/55/55
f 73/73/73 340/340/325 62/62/62
f 73/73/73 62/62/62 61/61/61
f 25/25/25 343/343/328 344/344/329
f 25/25/25 344/344/329 26/26/26
f 227/227/221 345/345/330 346/346/331
f 227/227/221 346/346/331 347/347/332
f 348/348/333 341/341/326 349/349/334
f 348/348/333 349/349/334 350/350/335
f 350/350/335 349/349/334 203/203/197
f 350/350/335 203/203/197 207/207/201
f 351/351/336 350/350/335 207/207/201
f 351/351/336 207/207/201 253/253/247
f 351/351/336 295/295/282 348/348/333
f 351/351/336 348/348/333 350/350/335
f 352/352/337 281/281/270 276/276/265
f 352/352/337 276/276/265 353/353/338
f 354/354/339 355/355/340 356/356/341
f 354/354/339 356/356/341 328/328/315
f 357/357/342 358/358/343 355/355/340
f 357/357/342 355/355/340 354/354/339
f 359/359/344 322/322/309 281/281/270
f 359/359/344 281/281/270 352/352/337
f 358/358/343 359/359/344 352/352/337
f 358/358/343 352/352/337 355/355/340
f 355/355/340 352/352/337 353/353/338
f 355/355/340 353/353/338 356/356/341
f 342/342/327 341/341/326 348/348/333
f 342/342/327 348/348/333 360/360/345
f 347/347/332 346/346/331 361/361/346
f 347/347/332 361/361/346 360/360/345
f 284/284/273 283/283/272 358/358/343
f 284/284/273 358/358/343 357/357/342
f 267/267/207 362/362/206 218/218/212
f 267/267/207 218/218/212 10/10/10
f 363/363/347 364/364/347 365/365/347
f 363/363/347 365/365/347 366/366/347
f 295/295/282 347/347/332 360/360/345
f 295/295/282 360/360/345 348/348/333
f 367/367/348 342/342/327 360/360/345
f 367/367/348 360/360/345 361/361/346
f 294/294/281 368/368/349 347/347/332
f 294/294/281 347/347/332 295/295/282
f 369/369/350 209/209/203 342/342/327
f 369/369/350 342/342/327 367/367/348
f 370/370/351 345/345/330 227/227/221
f 370/370/351 227/227/221 35/35/35
f 369/369/350 49/49/49 210/210/204
f 369/369/350 210/210/204 209/209/203
f 371/371/352 284/284/273 357/357/342
f 371/371/352 357/357/342 372/372/353
f 372/372/353 357/357/342 354/354/339
f 372/372/353 354/354/339 373/373/354
f 373/373/354 354/354/339 328/328/315
f 373/373/354 328/328/315 327/327/314
f 326/326/313 325/325/312 340/340/325
f 326/326/313 340/340/325 73/73/73
f 343/343/328 374/374/355 375/375/355
f 343/343/328 375/375/355 344/344/329
f 376/376/356 59/59/59 284/284/273
f 376/376/356 284/284/273 371/371/352
f 377/377/357 378/378/358 221/221/215
f 377/377/357 221/221/215 215/215/209
f 379/379/359 380/380/360 256/256/249
f 379/379/359 256/256/249 217/217/211
f 381/381/361 382/382/362 216/216/210
f 381/381/361 216/216/210 265/265/216
f 380/380/360 122/122/116 33/33/33
f 380/380/360 33/33/33 256/256/249
f 264/264/257 383/383/363 214/214/208
f 264/264/257 214/214/208 224/224/218
f 378/378/358 384/384/361 222/222/216
f 378/378/358 222/222/216 221/221/215
f 382/382/362 379/379/359 217/217/211
f 382/382/362 217/217/211 216/216/210
f 383/383/363 377/377/357 215/215/209
f 383/383/363 215/215/209 214/214/208
f 28/28/28 33/33/33 35/35/35
f 28/28/28 35/35/35 29/29/29
f 385/385/364 274/274/263 296/296/283
f 385/385/364 296/296/283 386/386/365
f 387/387/366 336/336/279 290/290/277
f 387/387/366 290/290/277 388/388/367
f 389/389/368 288/288/275 58/58/58
f 389/389/368 58/58/58 124/124/118
f 386/386/365 296/296/283 291/291/278
f 386/386/365 291/291/278 390/390/369
f 390/390/369 291/291/278 292/292/279
f 390/390/369 292/292/279 391/391/366
f 388/388/367 290/290/277 287/287/274
f 388/388/367 287/287/274 392/392/370
f 393/393/371 287/287/274 288/288/275
f 393/393/371 288/288/275 389/389/368
f 293/293/280 273/273/262 274/274/263
f 293/293/280 274/274/263 385/385/364
f 66/66/66 65/65/65 59/59/59
f 66/66/66 59/59/59 58/58/58
f 394/394/372 395/395/373 396/396/374
f 394/394/372 396/396/374 397/397/375
f 398/398/376 394/394/372 397/397/375
f 398/398/376 397/397/375 399/399/377
f 395/395/373 134/134/128 136/136/130
f 395/395/373 136/136/130 396/396/374
f 400/400/378 401/401/379 399/399/377
f 400/400/378 399/399/377 402/402/380
f 403/403/381 404/404/382 401/401/379
f 403/403/381 401/401/379 400/400/378
f 138/138/132 128/128/122 404/404/382
f 138/138/132 404/404/382 403/403/381
f 396/396/374 136/136/130 137/137/131
f 396/396/374 137/137/131 405/405/383
f 401/401/379 404/404/382 141/141/135
f 401/401/379 141/141/135 144/144/138
f 399/399/377 401/401/379 144/144/138
f 399/399/377 144/144/138 398/398/376
f 397/397/375 396/396/374 405/405/383
f 397/397/375 405/405/383 406/406/384
f 399/399/377 397/397/375 406/406/384
f 399/399/377 406/406/384 402/402/380
f 404/404/382 128/128/122 142/142/136
f 404/404/382 142/142/136 141/141/135
f 161/161/155 154/154/148 151/151/145
f 161/161/155 151/151/145 159/159/153
f 159/159/153 151/151/145 153/153/147
f 159/159/153 153/153/147 160/160/154
f 407/407/385 408/408/386 409/409/387
f 407/407/385 409/409/387 410/410/388
f 411/411/389 412/412/390 408/408/386
f 411/411/389 408/408/386 407/407/385
f 410/410/388 409/409/387 172/172/166
f 410/410/388 172/172/166 171/171/165
f 413/413/391 414/414/392 412/412/390
f 413/413/391 412/412/390 415/415/393
f 416/416/394 413/413/391 415/415/393
f 416/416/394 415/415/393 417/417/395
f 176/176/170 416/416/394 417/417/395
f 176/176/170 417/417/395 165/165/159
f 409/409/387 418/418/396 174/174/168
f 409/409/387 174/174/168 172/172/166
f 415/415/393 181/181/175 178/178/172
f 415/415/393 178/178/172 417/417/395
f 412/412/390 411/411/389 181/181/175
f 412/412/390 181/181/175 415/415/393
f 408/408/386 419/419/397 418/418/396
f 408/408/386 418/418/396 409/409/387
f 412/412/390 414/414/392 419/419/397
f 412/412/390 419/419/397 408/408/386
f 417/417/395 178/178/172 180/180/174
f 417/417/395 180/180/174 165/165/159
f 197/197/191 196/196/190 188/188/182
f 197/197/191 188/188/182 191/191/185
f 196/196/190 198/198/192 189/189/183
f 196/196/190 189/189/183 188/188/182
f 420/420/398 421/421/399 422/422/400
f 420/420/398 422/422/400 423/423/401
f 424/424/402 425/425/403 422/422/400
f 424/424/402 422/422/400 421/421/399
f 426/426/404 427/427/405 424/424/402
f 426/426/404 424/424/402 428/428/406
f 429/429/407 430/430/408 421/421/399
f 429/429/407 421/421/399 420/420/398
f 427/427/405 431/431/409 425/425/403
f 427/427/405 425/425/403 424/424/402
f 427/427/405 420/420/398 423/423/401
f 427/427/405 423/423/401 431/431/409
f 423/423/401 422/422/400 425/425/403
f 423/423/401 425/425/403 431/431/409
f 428/428/406 424/424/402 421/421/399
f 428/428/406 421/421/399 430/430/408
f 426/426/404 429/429/407 420/420/398
f 426/426/404 420/420/398 427/427/405
f 432/432/410 339/339/324 338/338/323
f 339/339/324 432/432/410 433/433/410
f 339/339/324 433/433/410 434/434/410
f 437/437/411 269/269/259 268/268/258
f 269/269/259 437/437/411 435/435/411
f 269/269/259 435/435/411 436/436/411
